<svg xmlns="http://www.w3.org/2000/svg" viewBox="0 0 512 512" width="512" height="512">
  <defs>
    <linearGradient id="bg" x1="0" y1="0" x2="1" y2="1">
      <stop offset="0" stop-color="#38bdf8"/>
      <stop offset="1" stop-color="#4f46e5"/>
    </linearGradient>
    <radialGradient id="glow" cx="0.5" cy="0.28" r="0.75">
      <stop offset="0" stop-color="#ffffff" stop-opacity="0.25"/>
      <stop offset="1" stop-color="#ffffff" stop-opacity="0"/>
    </radialGradient>
  </defs>
  <rect width="512" height="512" rx="116" fill="url(#bg)"/>
  <rect width="512" height="512" rx="116" fill="url(#glow)"/>
  <g fill="#ffffff" transform="translate(64,61) scale(1.5)">
    <rect x="94" y="30" width="16" height="74" rx="8"/>
    <rect x="146" y="30" width="16" height="74" rx="8"/>
    <rect x="70" y="96" width="116" height="20" rx="10"/>
    <path d="M78 112 h100 v18 a50 54 0 0 1 -100 0 z"/>
    <rect x="114" y="176" width="28" height="18" rx="5"/>
    <rect x="122" y="190" width="12" height="40" rx="6"/>
    <path d="M128 50 C130.5 60.5 132 62 142.5 64.5 C132 67 130.5 68.5 128 79 C125.5 68.5 124 67 113.5 64.5 C124 62 125.5 60.5 128 50 Z"/>
  </g>
</svg>
